<svg version="1.2" baseProfile="tiny-ps" xmlns="http://www.w3.org/2000/svg" viewBox="0 0 124 24" width="124" height="24">
	<title>Layer</title>
	<style>
		tspan { white-space:pre }
		.s0 { fill: #193642 } 
	</style>
	<path id="Layer" fill-rule="evenodd" class="s0" d="m5.86 18.71c-3.44 0-5.39-1.4-5.86-4.2l3.72-0.85c0.23 1.06 0.94 1.59 2.13 1.59c0.81 0 1.22-0.22 1.22-0.65c0-0.03 0-0.07-0.01-0.1c-0.01-0.03-0.02-0.07-0.03-0.1c-0.01-0.03-0.03-0.06-0.05-0.09c-0.02-0.03-0.04-0.05-0.07-0.07c-0.11-0.09-0.34-0.2-0.71-0.34l-1.49-0.55l-0.42-0.15c-0.3-0.1-0.53-0.19-0.71-0.26c-0.17-0.07-0.43-0.19-0.76-0.36c-0.33-0.17-0.61-0.34-0.82-0.53c-0.22-0.19-0.44-0.41-0.67-0.67c-0.23-0.26-0.41-0.55-0.52-0.89c-0.12-0.34-0.17-0.71-0.17-1.11c0-1.27 0.51-2.31 1.51-3.1c1.01-0.79 2.28-1.19 3.8-1.19c2.55 0 4.27 1.11 5.16 3.33l-3.7 1.04c-0.33-0.7-0.83-1.04-1.51-1.04c-0.55 0-0.82 0.21-0.82 0.62c0 0.04 0 0.07 0.01 0.11c0.01 0.04 0.02 0.07 0.04 0.1c0.02 0.03 0.04 0.06 0.06 0.09c0.02 0.03 0.05 0.05 0.08 0.07c0.13 0.1 0.36 0.2 0.67 0.3l1.44 0.6c2.68 0.93 4.06 2.32 4.14 4.17c0 1.38-0.54 2.42-1.61 3.14c-1.08 0.72-2.43 1.08-4.07 1.08v0zm11.64 0c-3.03 0-4.54-1.9-4.54-5.69v-7.65h5.11v7.16c0 1.47 0.51 2.21 1.54 2.21c1.01 0 1.51-0.74 1.51-2.21v-7.16h5.11v13.07h-5.11v-1.62c-0.78 1.26-1.99 1.89-3.62 1.89v0zm16.1-0.27h-5.11v-13.07h5.11v1.62c0.78-1.26 1.98-1.89 3.62-1.89c3.03 0 4.54 1.9 4.54 5.69v7.65h-5.11v-7.16c0-1.48-0.51-2.21-1.54-2.21c-1.01 0-1.51 0.74-1.51 2.21v7.16zm15.38 0h-5.11v-13.07h5.11v1.62c0.78-1.26 1.98-1.89 3.62-1.89c3.03 0 4.54 1.9 4.54 5.69v7.65h-5.11v-7.16c0-1.48-0.51-2.21-1.54-2.21c-1.01 0-1.51 0.74-1.51 2.21v7.16zm10.96 5.57l3.03-6.83l-5.43-11.8h5.58l2.26 6.68l2.53-6.68h5.34l-8.29 18.63h-5.01zm18.68-5.29c-3.44 0-5.39-1.4-5.86-4.2l3.72-0.84c0.23 1.06 0.94 1.59 2.13 1.59c0.81 0 1.22-0.22 1.22-0.65c0-0.03 0-0.07-0.01-0.1c-0.01-0.03-0.02-0.07-0.03-0.1c-0.01-0.03-0.03-0.06-0.05-0.09c-0.02-0.03-0.04-0.05-0.07-0.07c-0.11-0.09-0.34-0.2-0.71-0.34l-1.49-0.55l-0.42-0.15c-0.3-0.1-0.53-0.19-0.71-0.26c-0.17-0.07-0.43-0.19-0.76-0.36c-0.33-0.17-0.6-0.34-0.82-0.53c-0.22-0.19-0.44-0.41-0.67-0.67c-0.23-0.26-0.41-0.55-0.52-0.89c-0.12-0.34-0.17-0.71-0.17-1.11c0-1.27 0.5-2.31 1.51-3.1c1.01-0.79 2.28-1.19 3.8-1.19c2.55 0 4.27 1.11 5.16 3.33l-3.7 1.04c-0.33-0.7-0.84-1.04-1.51-1.04c-0.55 0-0.82 0.21-0.82 0.62c0 0.04 0 0.07 0.01 0.11c0.01 0.04 0.02 0.07 0.04 0.1c0.02 0.03 0.04 0.06 0.06 0.09c0.02 0.03 0.05 0.05 0.08 0.07c0.13 0.1 0.36 0.2 0.67 0.3l1.44 0.6c2.68 0.93 4.06 2.32 4.14 4.17c0 1.38-0.54 2.42-1.61 3.14c-1.08 0.72-2.43 1.08-4.07 1.08v0zm9.8-14.14c-0.91 0-1.61-0.22-2.11-0.65c-0.5-0.43-0.75-0.98-0.75-1.64c0-0.68 0.24-1.23 0.72-1.65c0.48-0.42 1.19-0.63 2.13-0.63c0.94 0 1.65 0.21 2.13 0.63c0.48 0.42 0.72 0.97 0.72 1.65c0 0.66-0.25 1.21-0.74 1.64c-0.5 0.43-1.2 0.65-2.11 0.65zm-2.56 13.86v-13.07h5.11v13.07h-5.11zm12.85 0.27c-1.75 0-3.21-0.64-4.38-1.92c-1.17-1.28-1.75-2.91-1.75-4.88c0-1.97 0.58-3.6 1.75-4.88c1.17-1.28 2.63-1.93 4.38-1.93c1.74 0 2.98 0.64 3.72 1.91v-6.53h5.11v17.96h-5.11v-1.62c-0.75 1.26-1.99 1.89-3.72 1.89h0zm1.39-3.9c0.73 0 1.31-0.27 1.75-0.82c0.44-0.55 0.66-1.24 0.66-2.09c0-0.84-0.22-1.54-0.66-2.09c-0.44-0.55-1.02-0.82-1.75-0.82c-0.73 0-1.31 0.27-1.76 0.82c-0.43 0.55-0.64 1.24-0.64 2.09c0 0.84 0.22 1.54 0.66 2.09c0.44 0.55 1.02 0.82 1.75 0.82zm16.7 3.9c-2.35 0-4.21-0.64-5.6-1.92c-1.38-1.28-2.07-2.9-2.07-4.83c0-1.89 0.65-3.5 1.96-4.84c1.31-1.34 3.09-2.01 5.33-2.01c2.1 0 3.83 0.6 5.17 1.79c1.35 1.19 2.02 2.82 2.02 4.87c0 0.48-0.04 0.87-0.12 1.17h-9.6c0 0.41 0.31 0.85 0.93 1.29c0.62 0.45 1.43 0.67 2.42 0.67c1.31 0 2.48-0.42 3.52-1.27l2.11 2.83c-1.46 1.51-3.48 2.26-6.08 2.26zm1.41-9.54c-0.5-0.33-1.08-0.5-1.76-0.5c-0.68 0-1.27 0.16-1.76 0.48c-0.5 0.32-0.76 0.79-0.79 1.4h5.11c-0.03-0.6-0.3-1.06-0.79-1.39z" />
</svg>